<?xml version="1.0" encoding="utf-8"?>
<!-- Generator: Adobe Illustrator 19.0.0, SVG Export Plug-In . SVG Version: 6.00 Build 0)  -->
<svg version="1.1" id="Vrstva_1" xmlns="http://www.w3.org/2000/svg" x="0px" y="0px"
     viewBox="304.6 397.5 26.9 12.8" style="enable-background:new 304.6 397.5 26.9 12.8;" xml:space="preserve">
<style type="text/css">
	.st0{fill:#6696B8;}
</style>
    <path id="XMLID_6_" class="st0" d="M331.1,398.6c-0.8-1.1-2.4-1.4-3.5-0.6l-9.5,6.7l-9.5-6.7c-1.1-0.8-2.7-0.5-3.5,0.6
	s-0.5,2.7,0.6,3.5l10.9,7.7c0.1,0.1,0.2,0.1,0.3,0.2c0,0,0,0,0.1,0c0.2,0.1,0.3,0.1,0.5,0.2h0.1c0.2,0,0.3,0.1,0.5,0.1l0,0l0,0
	c0.2,0,0.3,0,0.5-0.1h0.1c0.2,0,0.3-0.1,0.5-0.2c0,0,0,0,0.1,0s0.2-0.1,0.3-0.2l10.9-7.7C331.7,401.3,331.9,399.8,331.1,398.6z"/>
</svg>